<svg width="29" height="29" viewBox="0 0 29 29" fill="none" xmlns="http://www.w3.org/2000/svg">
<path d="M28.0981 14.3023C28.0981 21.8102 21.9265 27.9081 14.2991 27.9081C6.67162 27.9081 0.5 21.8102 0.5 14.3023C0.5 6.79445 6.67162 0.696533 14.2991 0.696533C21.9265 0.696533 28.0981 6.79445 28.0981 14.3023Z" stroke="#FFF8F1"/>
<path d="M17.4102 15.7503L17.8769 13.0151H14.9589V11.2402C14.9589 10.4919 15.3665 9.7625 16.6734 9.7625H18V7.43381C18 7.43381 16.7961 7.24902 15.6451 7.24902C13.242 7.24902 11.6712 8.55904 11.6712 10.9305V13.0151H9V15.7503H11.6712V22.3624H14.9589V15.7503H17.4102Z" fill="#FFF8F1"/>
</svg>
