<svg width="34" height="33" viewBox="0 0 34 33" fill="none" xmlns="http://www.w3.org/2000/svg">
<path d="M33.5001 16.5C33.5001 25.3334 26.2896 32.5 17.3879 32.5C8.48621 32.5 1.27576 25.3334 1.27576 16.5C1.27576 7.66663 8.48621 0.5 17.3879 0.5C26.2896 0.5 33.5001 7.66663 33.5001 16.5Z" stroke="#101A24"/>
<path d="M14.2898 10.1865C12.2281 10.1865 10.5508 11.7732 10.5508 13.7234V19.3825C10.5508 21.3327 12.2281 22.9194 14.2898 22.9194H20.2722C22.3339 22.9194 24.0112 21.3327 24.0112 19.3825V13.7234C24.0112 11.7732 22.3339 10.1865 20.2722 10.1865H14.2898ZM14.2898 11.6013H20.2722C21.509 11.6013 22.5156 12.5534 22.5156 13.7234V19.3825C22.5156 20.5525 21.509 21.5046 20.2722 21.5046H14.2898C13.0529 21.5046 12.0464 20.5525 12.0464 19.3825V13.7234C12.0464 12.5534 13.0529 11.6013 14.2898 11.6013ZM21.02 12.3087C20.8216 12.3087 20.6314 12.3832 20.4912 12.5159C20.351 12.6485 20.2722 12.8284 20.2722 13.0161C20.2722 13.2037 20.351 13.3836 20.4912 13.5162C20.6314 13.6489 20.8216 13.7234 21.02 13.7234C21.2183 13.7234 21.4085 13.6489 21.5488 13.5162C21.689 13.3836 21.7678 13.2037 21.7678 13.0161C21.7678 12.8284 21.689 12.6485 21.5488 12.5159C21.4085 12.3832 21.2183 12.3087 21.02 12.3087ZM17.281 13.0161C15.2193 13.0161 13.542 14.6027 13.542 16.553C13.542 18.5032 15.2193 20.0899 17.281 20.0899C19.3427 20.0899 21.02 18.5032 21.02 16.553C21.02 14.6027 19.3427 13.0161 17.281 13.0161ZM17.281 14.4308C18.5178 14.4308 19.5244 15.383 19.5244 16.553C19.5244 17.723 18.5178 18.6751 17.281 18.6751C16.0441 18.6751 15.0376 17.723 15.0376 16.553C15.0376 15.383 16.0441 14.4308 17.281 14.4308Z" fill="black"/>
</svg>
