<svg width="29" height="29" viewBox="0 0 29 29" fill="none" xmlns="http://www.w3.org/2000/svg">
<path d="M28.5 14.3023C28.5 21.8102 22.3284 27.9081 14.7009 27.9081C7.07349 27.9081 0.901871 21.8102 0.901871 14.3023C0.901871 6.79445 7.07349 0.696533 14.7009 0.696533C22.3284 0.696533 28.5 6.79445 28.5 14.3023Z" stroke="#FFF8F1"/>
<path d="M12.0343 8.90479C10.2597 8.90479 8.8159 10.2612 8.8159 11.9285V16.7664C8.8159 18.4336 10.2597 19.7901 12.0343 19.7901H17.1837C18.9583 19.7901 20.4021 18.4336 20.4021 16.7664V11.9285C20.4021 10.2612 18.9583 8.90479 17.1837 8.90479H12.0343ZM12.0343 10.1143H17.1837C18.2483 10.1143 19.1147 10.9282 19.1147 11.9285V16.7664C19.1147 17.7666 18.2483 18.5806 17.1837 18.5806H12.0343C10.9696 18.5806 10.1033 17.7666 10.1033 16.7664V11.9285C10.1033 10.9282 10.9696 10.1143 12.0343 10.1143ZM17.8274 10.719C17.6566 10.719 17.4929 10.7827 17.3722 10.8961C17.2515 11.0095 17.1837 11.1634 17.1837 11.3237C17.1837 11.4841 17.2515 11.6379 17.3722 11.7514C17.4929 11.8648 17.6566 11.9285 17.8274 11.9285C17.9981 11.9285 18.1618 11.8648 18.2825 11.7514C18.4032 11.6379 18.471 11.4841 18.471 11.3237C18.471 11.1634 18.4032 11.0095 18.2825 10.8961C18.1618 10.7827 17.9981 10.719 17.8274 10.719ZM14.609 11.3237C12.8344 11.3237 11.3906 12.6802 11.3906 14.3474C11.3906 16.0147 12.8344 17.3711 14.609 17.3711C16.3836 17.3711 17.8274 16.0147 17.8274 14.3474C17.8274 12.6802 16.3836 11.3237 14.609 11.3237ZM14.609 12.5332C15.6736 12.5332 16.54 13.3472 16.54 14.3474C16.54 15.3477 15.6736 16.1616 14.609 16.1616C13.5443 16.1616 12.678 15.3477 12.678 14.3474C12.678 13.3472 13.5443 12.5332 14.609 12.5332Z" fill="#FFF8F1"/>
</svg>
