<?xml version="1.0" encoding="utf-8"?>
<!-- Generator: Adobe Illustrator 24.1.0, SVG Export Plug-In . SVG Version: 6.00 Build 0)  -->
<svg version="1.0"
	 id="svg2" inkscape:version="0.48.3.1 r9886" sodipodi:docname="Label_Rouge.eps" xmlns:cc="http://creativecommons.org/ns#" xmlns:dc="http://purl.org/dc/elements/1.1/" xmlns:inkscape="http://www.inkscape.org/namespaces/inkscape" xmlns:rdf="http://www.w3.org/1999/02/22-rdf-syntax-ns#" xmlns:sodipodi="http://sodipodi.sourceforge.net/DTD/sodipodi-0.dtd" xmlns:svg="http://www.w3.org/2000/svg"
	 xmlns="http://www.w3.org/2000/svg" xmlns:xlink="http://www.w3.org/1999/xlink" x="0px" y="0px" width="241.535px"
	 height="164.73px" viewBox="0 0 241.535 164.73" style="enable-background:new 0 0 241.535 164.73;" xml:space="preserve">
<sodipodi:namedview  bordercolor="#666666" borderopacity="1" gridtolerance="10" guidetolerance="10" id="namedview4" inkscape:current-layer="g12" inkscape:cx="-83.230932" inkscape:cy="121.25" inkscape:pageopacity="0" inkscape:pageshadow="2" inkscape:window-height="1000" inkscape:window-maximized="1" inkscape:window-width="1280" inkscape:window-x="1280" inkscape:window-y="0" inkscape:zoom="1" objecttolerance="10" showgrid="false">
	</sodipodi:namedview>
<g id="g10" transform="matrix(1.25,0,0,-1.25,0,242.5)" inkscape:groupmode="layer" inkscape:label="ink_ext_XXXXXX">
	<g id="g12" transform="scale(0.1,0.1)">
		<path id="path14" style="fill-opacity:0;" d="M0,622.161h1927.56L1932.283,1940H4.723C4.723,1940,0,622.161,0,622.161z"/>
		<g id="path16">
			<path style="fill-rule:evenodd;clip-rule:evenodd;fill:#ED1C24;" d="M808.847,661.001c-204.809,0-379.434,53.945-505.004,156
				c-120.676,98.078-187.133,236.234-187.133,389.023c0,193.469,112.223,367.781,316,490.824
				c183.77,110.969,433.031,174.609,683.863,174.609c21.367,0,213.867-2.262,391.391-80.66
				c199.586-88.133,305.078-240.527,305.078-440.699c0-271.051-187.805-434.473-345.359-523.848
				C1285.269,722.774,1038.972,661.001,808.847,661.001z"/>
			<path style="fill:#FFFFFF;" d="M1116.573,1855.457c119.19,0,680.47-43,680.47-505.36c0-462.35-569.95-673.097-988.196-673.097
				c-418.25,0-676.137,230.102-676.137,529.024C132.71,1612.457,626.812,1855.457,1116.573,1855.457 M1116.573,1887.457
				c-253.665,0-505.938-64.481-692.133-176.911c-99.838-60.285-178.363-132.176-233.395-213.677
				c-59.942-88.774-90.335-186.629-90.335-290.845c0-157.698,68.557-300.265,193.042-401.44
				C422.206,700.183,600.323,645,808.847,645c232.768,0,482.012,62.555,666.729,167.333
				c231.24,131.169,353.467,317.125,353.467,537.764c0,206.994-108.791,364.447-314.612,455.338
				C1333.906,1885.155,1138.284,1887.457,1116.573,1887.457L1116.573,1887.457z"/>
		</g>
		<g id="g18" transform="scale(1.00385,0.996149)">
			<path id="path20" style="fill:none;stroke:#ED1C24;stroke-width:1.692;stroke-miterlimit:10;" d="M85.809,1207.302
				c0-316.868,271.272-560.788,711.237-560.788c439.962,0,1039.502,223.403,1039.502,713.517c0,490.11-590.41,535.71-715.81,535.71
				C605.558,1895.741,85.809,1638.141,85.809,1207.302"/>
		</g>
		<path id="path22" style="fill-rule:evenodd;clip-rule:evenodd;fill:#FFFFFF;" d="M189.722,1291.577
			c0.847-0.12,1.707-0.16,2.547-0.28c18.773-2.6,28.148-11.24,26.578-22.343c-1.539-10.883-12.867-16.707-30.641-14.239
			c-17.773,2.469-27.113,11.321-25.492,22.802c1.105,7.85,6.758,12.87,16.355,14.18l3.196-10.11c-5.571-0.05-8.586-1.97-9.121-5.75
			c-0.817-5.78,4.695-8.962,16.543-10.606c11.851-1.652,18.183,0.418,18.925,5.676c0.649,4.6-3.023,8.05-10.64,9.1l-1.324-9.4
			l-9.696,1.35L189.722,1291.577"/>
		<path id="path24" style="fill-rule:evenodd;clip-rule:evenodd;fill:#FFFFFF;" d="M206.456,1306.197
			c-8.289,3.37-16.312,6.53-23.992,9.45c8.727-1.25,17.297-2.15,25.676-2.54L206.456,1306.197L206.456,1306.197z M220.917,1288.117
			l2.516,10.32l-9.055,3.87l2.535,10.38l9.863-0.51l2.512,10.32l-56.64,1.43l-2.637-10.84L220.917,1288.117"/>
		<path id="path26" style="fill-rule:evenodd;clip-rule:evenodd;fill:#FFFFFF;" d="M203.835,1344.777l-14.578,4.88
			c0.098,0.52,0.238,0.94,0.383,1.37c1.519,4.46,4.379,5.64,9.383,3.96c5.003-1.67,6.742-4.78,5.269-9.1
			C204.171,1345.527,203.956,1345.137,203.835,1344.777z M230.253,1325.047l3.328,9.78l-21.793,7.29l24.582,0.93l3.61,10.63
			l-27.223-1.7c0.012,6.07-3.688,10.15-11.047,12.61c-10.605,3.55-16.578-0.29-20.383-11.49l-3.562-10.49L230.253,1325.047"/>
		<path id="path28" style="fill-rule:evenodd;clip-rule:evenodd;fill:#FFFFFF;" d="M228.339,1372.557
			c-7.578,4.75-14.93,9.24-21.984,13.44c8.378-2.73,16.664-5.1,24.847-6.92L228.339,1372.557L228.339,1372.557z M239.417,1352.257
			l4.281,9.74l-8.242,5.36l4.313,9.8l9.621-2.21l4.277,9.73l-55.531,11.16l-4.488-10.22L239.417,1352.257"/>
		<path id="path30" style="fill-rule:evenodd;clip-rule:evenodd;fill:#FFFFFF;" d="M206.382,1413.527l5.226,9.44l31.368-4.82
			c1.785-0.29,5.672-1.12,11.605-2.58c-6.976,2.61-13.055,5.25-18.293,8.11l-18.66,10.17l4.793,8.65l48.547-26.48l-4.793-8.65
			l-32.824,4.6c-1,0.11-4.09,0.95-9.305,2.26c4.719-1.89,9.762-4.48,15.207-7.45l20.426-11.13l-4.754-8.59L206.382,1413.527"/>
		<path id="path32" style="fill-rule:evenodd;clip-rule:evenodd;fill:#FFFFFF;" d="M240.062,1450.957l-4.516-6.81l-8.57,5.59
			l14.965,22.55l8.566-5.6l-4.52-6.8l37.704-24.63l-5.926-8.93L240.062,1450.957"/>
		<path id="path34" style="fill-rule:evenodd;clip-rule:evenodd;fill:#FFFFFF;" d="M246.655,1478.617l6.481,8.74l44.601-32.6
			l-6.484-8.74L246.655,1478.617"/>
		<path id="path36" style="fill-rule:evenodd;clip-rule:evenodd;fill:#FFFFFF;" d="M259.839,1496.137l14.312,17.36l7.938-6.44
			l-7.727-9.38l8.661-7.03l7.011,8.51l7.879-6.39l-7.015-8.51l10.046-8.15l7.727,9.37l8.359-6.78l-14.312-17.36L259.839,1496.137"/>
		<path id="path38" style="fill-rule:evenodd;clip-rule:evenodd;fill:#FFFFFF;" d="M330.187,1523.457l-0.571-7.56l8.555-0.54
			c-0.313-0.43-0.684-0.9-1.055-1.27c-3.675-3.66-9.765-1.76-17.801,6.19c-8.972,8.86-11.624,15.07-7.632,19.05
			c3.828,3.81,10.09,1.53,18.566-6.85c3.192-3.16,5.84-6.2,7.574-9.49L330.187,1523.457L330.187,1523.457z M356.831,1521.817
			l-8.281,0.48c-0.527,5.38-3.985,11.01-10.309,17.27c-13.375,13.22-25.64,15.42-33.992,7.1c-8.082-8.05-6.086-20.37,6.246-32.55
			c13.207-13.07,25.582-15.38,33.883-7.11c2.336,2.33,3.867,4.72,4.414,7.56l7.637-0.48L356.831,1521.817"/>
		<path id="path40" style="fill-rule:evenodd;clip-rule:evenodd;fill:#FFFFFF;" d="M373.077,1561.537
			c3.934-4.47,6.785-7.83,7.641-11.08c1.586-5.79-0.52-10.78-6.258-15.75c-5.734-4.97-11.066-6.41-16.625-4.06
			c-3.176,1.34-6.148,4.6-10.027,9.02l-22.883,26.02l8.066,6.98l23.442-26.66c4.699-5.35,7.386-7.73,11.648-4.04
			c4.145,3.59,2.453,6.42-2.453,12l-23.437,26.67l8.003,6.93L373.077,1561.537"/>
		<path id="path42" style="fill-rule:evenodd;clip-rule:evenodd;fill:#FFFFFF;" d="M388.886,1571.027
			c-4.356,7.77-8.637,15.21-12.801,22.25c6.035-6.38,12.16-12.4,18.457-17.9L388.886,1571.027z M388.792,1547.947l8.461,6.5
			l-4.641,8.63l8.524,6.54l7.375-6.51l8.457,6.5l-43.336,36.22l-8.879-6.83L388.792,1547.947"/>
		<path id="path44" style="fill-rule:evenodd;clip-rule:evenodd;fill:#FFFFFF;" d="M387.784,1616.307l8.676,6.08l25.746-36.13
			l9.965,7l6.238-8.75l-18.644-13.08L387.784,1616.307"/>
		<path id="path46" style="fill-rule:evenodd;clip-rule:evenodd;fill:#FFFFFF;" d="M411.448,1632.637l9.117,5.98l30.543-45.85
			l-9.113-5.99L411.448,1632.637"/>
		<path id="path48" style="fill-rule:evenodd;clip-rule:evenodd;fill:#FFFFFF;" d="M438.874,1638.147l-6.996-4.28l-5.383,8.66
			l23.153,14.18l5.386-8.67l-6.992-4.27l23.703-38.13l-9.172-5.61L438.874,1638.147"/>
		<path id="path50" style="fill-rule:evenodd;clip-rule:evenodd;fill:#FFFFFF;" d="M462.167,1669.607l-4.258-2.4l-0.996,15.49
			l7.86,4.44L462.167,1669.607L462.167,1669.607z M455.491,1660.077l19.653,11.1l5.074-8.85l-10.613-5.99l5.539-9.65l9.625,5.44
			l5.035-8.77l-9.629-5.45l6.418-11.18l10.613,5.99l5.34-9.31l-19.645-11.11L455.491,1660.077"/>
		<path id="path52" style="fill-rule:evenodd;clip-rule:evenodd;fill:#FFFFFF;" d="M515.843,1645.577
			c3.437-0.96,6.285-0.92,8.711,0.29c3.297,1.65,4.277,4.55,2.773,7.51c-1.746,3.44-5.004,3.55-9.156,4.75
			c-7.422,2.17-11.934,4.57-15.039,10.7c-4.293,8.47-2.074,16.75,5.465,20.51c2.761,1.38,5.738,1.83,9.301,1.62l4.394-8.68
			c-3.453,0-5.828-0.15-7.512-0.99c-2.757-1.37-3.734-4.27-2.269-7.17c1.711-3.37,4.945-4.26,9.812-5.54
			c6.809-1.78,11.133-3.16,14.625-10.05c4.469-8.82,2.145-17.05-6.472-21.35c-3.235-1.61-6.309-2.2-9.465-1.79L515.843,1645.577"/>
		<path id="path54" style="fill-rule:evenodd;clip-rule:evenodd;fill:#FFFFFF;" d="M570.437,1679.367
			c2.5-5.39,4.273-9.43,4.164-12.77c-0.129-6.01-3.578-10.2-10.5-13.35c-6.918-3.15-12.446-3.03-17.11,0.79
			c-2.66,2.18-4.578,6.14-7.039,11.47l-14.496,31.4l9.727,4.42l14.855-32.17c2.977-6.45,4.879-9.48,10.016-7.15
			c5,2.28,4.191,5.47,1.082,12.2l-14.856,32.17l9.657,4.39L570.437,1679.367"/>
		<path id="path56" style="fill-rule:evenodd;clip-rule:evenodd;fill:#FFFFFF;" d="M583.648,1696.487l-5.895,14.1
			c0.352,0.14,0.668,0.35,1.016,0.5c4.457,1.83,7.422,0.38,9.418-4.38c1.964-4.71,0.711-8.14-3.469-9.86
			C584.374,1696.697,583.991,1696.627,583.648,1696.487z M586.062,1663.757l9.609,3.95l-8.809,21.08
			c0.793,0.25,1.559,0.57,2.254,0.85c9.258,3.81,12.332,11.5,8.34,21.05c-4.195,10.04-11.449,12.56-22.308,8.09l-10.305-4.24
			L586.062,1663.757"/>
		<path id="path58" style="fill-rule:evenodd;clip-rule:evenodd;fill:#FFFFFF;" d="M605.804,1736.287l-4.582-1.73l1.41,15.46
			l8.453,3.19L605.804,1736.287L605.804,1736.287z M597.737,1727.877l21.129,7.98l3.649-9.52l-11.41-4.3l3.976-10.38l10.356,3.91
			l3.617-9.44l-10.356-3.9l4.61-12.04l11.414,4.31l3.84-10.02l-21.133-7.97L597.737,1727.877"/>
		<path id="path60" style="fill-rule:evenodd;clip-rule:evenodd;fill:#FFFFFF;" d="M644.499,1719.627l-5.055,14.41
			c0.469,0.25,0.895,0.4,1.329,0.55c4.48,1.55,7.168,0.03,8.906-4.93c1.734-4.95,0.328-8.21-4.012-9.71
			C645.312,1719.827,644.858,1719.747,644.499,1719.627L644.499,1719.627z M645.003,1686.817l9.82,3.39l-7.562,21.56l15.82-18.7
			l10.676,3.69l-18.055,20.29c4.84,3.72,5.817,9.11,3.262,16.39c-3.68,10.49-10.402,12.82-21.645,8.93l-10.535-3.64
			L645.003,1686.817"/>
		<path id="path62" style="fill-rule:evenodd;clip-rule:evenodd;fill:#FFFFFF;" d="M661.3,1750.437l10.398,3.32l16.977-52.33
			l-10.399-3.32L661.3,1750.437"/>
		<path id="path64" style="fill-rule:evenodd;clip-rule:evenodd;fill:#FFFFFF;" d="M681.444,1756.817l21.664,6.42l2.938-9.74
			l-11.699-3.48l3.203-10.63l10.613,3.14l2.918-9.67l-10.613-3.15l3.715-12.34l11.699,3.48l3.09-10.27l-21.66-6.43L681.444,1756.817
			"/>
		<path id="path66" style="fill-rule:evenodd;clip-rule:evenodd;fill:#FFFFFF;" d="M752.323,1740.767
			c1.547-5.73,2.625-9.99,1.953-13.29c-1.14-5.89-5.246-9.45-12.593-11.41c-7.356-1.96-12.782-0.93-16.739,3.61
			c-2.261,2.59-3.484,6.81-5.011,12.47l-9.024,33.36l10.336,2.75l9.246-34.18c1.852-6.85,3.215-10.15,8.672-8.71
			c5.313,1.42,5.051,4.7,3.117,11.85l-9.246,34.18l10.266,2.73L752.323,1740.767"/>
		<path id="path68" style="fill-rule:evenodd;clip-rule:evenodd;fill:#FFFFFF;" d="M768.062,1755.557l-3.555,14.85
			c0.496,0.2,0.937,0.3,1.379,0.41c4.617,1.08,7.133-0.7,8.355-5.8c1.219-5.11-0.519-8.2-4.992-9.26
			C768.886,1755.677,768.429,1755.637,768.062,1755.557z M765.187,1722.867l10.117,2.39l-5.309,22.2l13.813-20.2l11,2.59
			l-15.875,22.01c5.199,3.21,6.73,8.48,4.937,15.98c-2.586,10.8-9.031,13.8-20.617,11.07l-10.852-2.55L765.187,1722.867"/>
		<path id="path70" style="fill-rule:evenodd;clip-rule:evenodd;fill:#FFFFFF;" d="M787.515,1784.467l22.117,4.64l2.121-9.95
			l-11.941-2.5l2.316-10.87l10.836,2.27l2.113-9.87l-10.84-2.28l2.688-12.6l11.941,2.51l2.235-10.48l-22.118-4.65L787.515,1784.467"
			/>
		<path id="path72" style="display:none;fill-rule:evenodd;clip-rule:evenodd;fill:#ED1C24;" d="M969.128,581.422v30.457h2.488
			c11.078,0,16.571-4.32,16.571-15.269c0-10.789-5.356-15.188-16.571-15.188H969.128z M954.577,569.09h14.996
			c8.973,0,16.43,0.309,23.137,5.164c6.793,4.938,10.413,12.571,10.413,22.356c0,9.863-3.62,17.496-10.413,22.359
			c-7.082,5.094-15.148,5.242-25.168,5.242h-12.965L954.577,569.09"/>
		<path id="path74" style="display:none;fill-rule:evenodd;clip-rule:evenodd;fill:#ED1C24;" d="M1028.433,630.071h-5.65l6.7,13.183
			h10.34L1028.433,630.071L1028.433,630.071z M1012.313,624.211h33V612.11h-18.7v-9.563h17.64v-11.8h-17.64v-9.325h18.7V569.09h-33
			V624.211"/>
		<path id="path76" style="display:none;fill-rule:evenodd;clip-rule:evenodd;fill:#ED1C24;" d="M1094.073,605.629
			c-3.92,4.465-7.69,6.633-12.44,6.633c-8.52,0-14.17-6.633-14.17-15.961c0-8.476,5.58-15.344,14.17-15.344
			c4.75,0,8.52,2.165,12.44,6.633v-16.422c-4.68-2.312-9.12-3.464-13.95-3.464c-15.89,0-27.35,12.253-27.35,28.906
			c0,16.652,11.46,28.91,27.35,28.91c4.83,0,9.27-1.156,13.95-3.469V605.629"/>
		<path id="path78" style="display:none;fill-rule:evenodd;clip-rule:evenodd;fill:#ED1C24;" d="M1116.143,598.149v14.504h2.94
			c6.11,0,8.89-1.86,8.89-7.633c0-4.863-2.93-6.871-9.11-6.871H1116.143z M1102.353,569.09h13.79v21.59l12.36-21.59h16.58
			l-14.69,22.203c7.84,1.696,12.06,7.176,12.06,15.719c0,5.707-2.11,10.414-6.03,13.496c-4.6,3.625-10.33,3.703-17.78,3.703h-16.29
			V569.09"/>
		<path id="path80" style="display:none;fill-rule:evenodd;clip-rule:evenodd;fill:#ED1C24;" d="M1150.663,624.211h33V612.11h-18.68
			v-9.563h17.64v-11.8h-17.64v-9.325h18.68V569.09h-33V624.211"/>
		<path id="path82" style="display:none;fill-rule:evenodd;clip-rule:evenodd;fill:#ED1C24;" d="M1201.153,611.18h-11.98v13.031
			h38.74V611.18h-12.06v-42.09h-14.7V611.18"/>
		<path id="path84" style="display:none;fill-rule:evenodd;clip-rule:evenodd;fill:#ED1C24;" d="M1273.203,581.422v30.457h2.48
			c11.07,0,16.58-4.32,16.58-15.269c0-10.789-5.35-15.188-16.58-15.188H1273.203z M1258.653,569.09h14.99
			c8.97,0,16.43,0.309,23.14,5.164c6.77,4.938,10.4,12.571,10.4,22.356c0,9.863-3.63,17.496-10.4,22.359
			c-7.08,5.094-15.14,5.242-25.18,5.242h-12.95V569.09"/>
		<path id="path86" style="display:none;fill-rule:evenodd;clip-rule:evenodd;fill:#ED1C24;" d="M1330.693,624.211v-29.91
			c0-9.797,1.73-14.035,9.35-14.035c8.96,0,9.34,5.707,9.34,17.508v26.437h14.62v-32.765c0-16.653-6.86-23.821-23.96-23.821
			c-9.13,0-15.46,2.153-19.31,6.704c-4.28,5.015-4.66,11.492-4.66,20.128v29.754H1330.693"/>
		<path id="path88" style="display:none;fill-rule:evenodd;clip-rule:evenodd;fill:#ED1C24;" d="M1411.103,611.18h-11.53
			l6.33,12.496h18.61V569.09h-13.41L1411.103,611.18"/>
		<path id="path90" style="display:none;fill-rule:evenodd;clip-rule:evenodd;fill:#ED1C24;" d="M1441.543,569.09l24.19,29.293
			c2.86,3.477,4.3,6.324,4.3,8.864c0,3.855-2.56,6.558-6.48,6.558c-4.52,0-7.16-3.09-7.16-8.785v-0.699h-12.96v0.386
			c0,12.489,7.76,20.114,19.96,20.114c12.52,0,19.82-7.395,19.82-17.496c0-5.778-2.63-10.25-7.3-15.578l-9.72-10.946h16.49V569.09
			H1441.543"/>
		<path id="path92" style="display:none;fill-rule:evenodd;clip-rule:evenodd;fill:#ED1C24;" d="M1498.963,582.891
			c4.15,0,7.47-3.391,7.47-7.633c0-4.316-3.32-7.633-7.47-7.633c-4.14,0-7.38,3.387-7.38,7.633
			C1491.583,579.422,1494.753,582.891,1498.963,582.891"/>
		<path id="path94" style="display:none;fill-rule:evenodd;clip-rule:evenodd;fill:#ED1C24;" d="M1527.453,596.223
			c0,11.723,1.89,17.352,6.86,17.352c4.82,0,6.78-5.707,6.78-17.352c0-11.566-1.88-17.34-6.78-17.34
			S1527.453,584.59,1527.453,596.223z M1554.663,595.68c0,18.738-7.69,29.074-20.35,29.074c-12.43,0-20.42-10.492-20.42-28.531
			c0-18.117,7.99-28.598,20.42-28.598C1546.753,567.625,1554.663,578.028,1554.663,595.68"/>
		<path id="path96" style="display:none;fill-rule:evenodd;clip-rule:evenodd;fill:#ED1C24;" d="M1574.553,587.368v-0.93
			c0-4.785,2.26-7.324,6.56-7.324c4.52,0,7,2.461,7,6.937c0,5.164-2.48,7.399-7.99,7.399c-0.53,0-1.05,0-1.65-0.078v8.867h0.75
			c4.98,0,7.69,2.316,7.69,6.48c0,3.391-2.56,5.699-5.96,5.699c-3.69,0-5.95-2.156-5.95-5.929h-13.04
			c0.24,10.172,7.24,16.265,19.68,16.265c11.3,0,17.7-5.707,17.7-14.183c0-5.551-3.01-9.641-8.51-11.344
			c6.79-1.145,10.62-6.238,10.62-13.562c0-10.715-8.21-18.04-20.11-18.04c-12.51,0-20.43,7.403-20.43,18.969v0.774H1574.553"/>
		<path id="path98" style="display:none;fill-rule:evenodd;clip-rule:evenodd;fill:#ED1C24;" d="M1616.673,582.891
			c4.15,0,7.47-3.391,7.47-7.633c0-4.316-3.32-7.633-7.47-7.633c-4.14,0-7.38,3.387-7.38,7.633
			C1609.293,579.422,1612.453,582.891,1616.673,582.891"/>
		<path id="path100" style="display:none;fill-rule:evenodd;clip-rule:evenodd;fill:#ED1C24;" d="M1652.403,596.997
			c-4.98,0-8.15,3.16-8.15,8.41c0,5.23,3.17,8.468,8.15,8.468c4.97,0,8.13-3.238,8.13-8.468
			C1660.533,600.157,1657.373,596.997,1652.403,596.997z M1653.073,588.211l-12.58-19.121h15l7.46,11.641
			c5.88,9.098,9.64,16.266,9.64,24.133c0,11.801-7.54,19.957-20.42,19.957c-12.81,0-20.57-8.324-20.57-20.114
			c0-10.335,7.01-17.339,15.82-17.339C1649.313,587.368,1651.203,587.668,1653.073,588.211"/>
		<path id="path102" style="display:none;fill-rule:evenodd;clip-rule:evenodd;fill:#ED1C24;" d="M1699.123,595.457
			c4.97,0,8.14-3.242,8.14-8.48c0-5.246-3.17-8.402-8.14-8.402c-4.98,0-8.14,3.156-8.14,8.402
			C1690.983,592.215,1694.143,595.457,1699.123,595.457z M1698.453,604.243l12.57,19.433h-15l-7.53-11.953
			c-5.35-8.633-9.64-15.652-9.64-24.133c0-11.797,7.53-19.965,20.42-19.965c12.81,0,20.64,8.254,20.64,20.043
			c0,10.329-7,17.426-15.82,17.426C1702.213,605.094,1700.333,604.786,1698.453,604.243"/>
		
			<path id="path104" style="fill-rule:evenodd;clip-rule:evenodd;fill:#FFFFFF;stroke:#ED1C24;stroke-width:1.692;stroke-miterlimit:10;" d="
			M1174.773,1318.247c161.48,62.18,285.11,157.37,298.03,312.11c12.93,154.74-199.69,188.44-407.66,184.26l-1.62,96.61l-171.54-1.12
			c-15.371-586.51-202.656-892.763-620.632-1260.892l278.59-1.066c159.808,157.133,366.812,174.43,477.082,170.461l126.43,137.469
			c69.03-106.977,159.34-215.43,278.79-305.258l281.86-1.211C1479.623,834.918,1292.863,1017.778,1174.773,1318.247z
			 M1058.683,1625.177c100.77,3.07,176.88,9.03,174.03-46.45c-2.86-55.48-130.23-127.54-212.99-133.16
			C1019.723,1445.567,1050.883,1569.937,1058.683,1625.177z M822.757,982.77c78.59,117.055,129.496,240.477,157.035,327.407
			c27.631-71.493,66.821-169.095,125.011-273.177C1020.203,1037.489,913.464,1020.071,822.757,982.77"/>
		<path id="path106" style="fill-rule:evenodd;clip-rule:evenodd;fill:#FFFFFF;" d="M255.98,983.993
			c-3.614,12.961-4.5,52.035-2.168,97.191c26.144,30.008,45.253,63.684,70.343,138.719
			c39.055,116.794,21.278,163.074,15.047,165.814c-7.285,2.79-53.074-24.93-97.605-171.654
			c-16.66-54.902-23.774-101.418-25.477-139.535c-10.754-11.946-22.551-24.371-35.5-37.426c0,0-4.844-4.832,4.988-10.793
			c9.825-5.969,9.918-2.32,15.79,1.707c5.097,5.035,9.925,9.75,14.539,14.25c1.464-40.684,9.281-68.648,15.796-83.742
			c1.497-3.453,2.395-9.43,8.79-5.418c6.402,4.008,15.562,13.699,18.972,24.555C259.495,977.661,257.921,977.7,255.98,983.993
			L255.98,983.993z M264.476,1183.313c12.855,75.223,48.093,143.144,52.285,142.774c6.32-0.54,3.711-41.5-11.117-101.309
			c-8.371-33.754-23.727-65.602-48.7-100.254C258.819,1144.676,261.312,1164.797,264.476,1183.313"/>
		<path id="path108" style="fill-rule:evenodd;clip-rule:evenodd;fill:#FFFFFF;" d="M385.476,1128.84l-9.809,7.004
			c0,0,1.715,5.703,6.582,11.828c4.883,6.129,7.219,15.977,2.524,17.137c-4.704,1.152-16.18,4.027-32.219-8.082
			c-16.047-12.121-52.629-48.758-67.492-98.941c-14.868-50.164-5.739-85.297,11.519-87.789
			c17.262-2.485,28.707,14.953,34.758,26.261c-4.191-21.258,3.195-19.863,15.875-16.527c12.68,3.348,12.281,8.558,14.543,15.289
			c5.738,20.172,24.184,109.855,26.578,121.777C390.722,1128.719,385.476,1128.84,385.476,1128.84L385.476,1128.84z
			 M330.858,1019.711c-13.781-27.289-23.832-8.8-22.472,4.184c5.39,51.383,28.75,81.621,36.285,89.246
			c9.723,11.227,12.613,0.746,12.387-8.617C356.39,1076.903,344.644,1046.997,330.858,1019.711"/>
		<path id="path110" style="fill-rule:evenodd;clip-rule:evenodd;fill:#FFFFFF;" d="M492.226,1179.954
			c-11.106-3.375-26.942-7.168-26.942-7.168c10.008,45.07,24.172,109.331,24.172,109.331c1.313,10.91,2.996,15.56-14.914,12.86
			c-17.918-2.7-17.98-5.31-20.305-14.63c-9.562-48.214-50.214-231.12-56.683-259.616c-6.461-28.504,2.992-28.207,9.277-28.879
			c6.277-0.672,63.914-5.164,94.988,85.773C532.901,1168.567,518.171,1189.227,492.226,1179.954z M445.448,1025.848
			c-9.66-8.629-11.418,5.465-10.273,9.086c1.133,3.609,21.805,98.453,24.14,108.301c0,0,2.262,6.711,6.997,7.121
			c4.734,0.41,13.617-1.359,13.265-15.949C478.667,1096.93,455.108,1034.457,445.448,1025.848"/>
		<path id="path112" style="fill-rule:evenodd;clip-rule:evenodd;fill:#FFFFFF;stroke:#ED1C24;stroke-miterlimit:10;" d="
			M745.319,1442.707c-23.546,3.17-77.539-58.57-107.504-233.925c-5.578-32.59-8.429-61.453-9.23-87.11
			c-12.644-22.371-22.855-38.422-39.926-56.547c-30.59-32.457-51.746-19.675-42.679,18.805
			c17.859,9.918,52.859,42.652,63.347,76.039c11.379,36.199,10.762,53.926-0.156,58.344c-10.922,4.43-28.656-12.856-34.086-20.008
			c-13.488-15.316-38.016-52.762-46.633-83.293s-10.148-72.168-4.808-90c5.343-17.84,31.043-14.984,42.382-5.691
			c22.672,18.554,43.571,40.75,62.868,65.613c4.441-87.016,35.078-129.246,55.191-154.387c5.106-6.375,20.73-11.437,31.688,7.571
			c10.957,19.011,13.128,27.187,2.019,40.062c-37.891,43.934-56.113,88.332-56.851,152.567
			c28.148,44.429,52.429,94.273,73.519,145.53C776.3,1377.897,768.866,1439.547,745.319,1442.707z M582.546,1180.93
			c15.215,21.504,18.773,16.746,11.375-7.047c-7.398-23.781-15.602-37.144-19.879-40.683c-3.82-3.149-9.777-8.723-15.34-3.903
			C565.577,1150.02,573.464,1168.09,582.546,1180.93z M668.378,1191.907c-1.605-2.711-3.141-5.309-4.645-7.883
			c2.375,22.301,6.219,46.75,11.493,73.871c11.39,58.592,24.289,91.612,34.804,114.812c4.438,9.79,20.285,22.43,19.27-6.19
			C727.628,1319.157,707.812,1258.411,668.378,1191.907"/>
		<path id="path114" style="fill-rule:evenodd;clip-rule:evenodd;fill:#FFFFFF;stroke:#ED1C24;stroke-miterlimit:10;" d="
			M1426.733,1184.227c15.29,2.238,29.26,15.453,35.34,27.809c-6.68,6.402-4.55,29.281-1.68,39.629
			c2.88,10.343,27.41,90.502,33.87,119.002c0,0-21.06-2.62-37.38-4.31c0,0-21.45-82.84-28.88-108.708
			c-46.01-79.121-43.2-27.621-39.09-9.488c2.68,11.781,22.5,83.336,31.55,110.206l-23.57,2.64c-9.29-9.78-42.1-30.51-55.41-34.64
			c-2.64,15.16-9.2,24.25-17.2,27c-11.46,3.91-27.44-5.6-37.82-22.54c-14.22-1.75-33.71-4.93-58.45-72.58
			c-12.13-33.125-14.94-56.801-13.96-73.2c-8.92-12.922-32.39-28.89-49.51-32.59c-19.53-4.23-2.23-27.042,6.1-30.359
			c7.97-3.195,23.87,1.633,52.7,32.984c0.94-1.125,1.7-1.785,2.11-2c3.12-1.636,22.15-17.195,58.32,2.258
			c44.41,23.895,56.96,118.977,58.72,148.097c0.07,1.2,0.09,2.36,0.14,3.53c8.52,2.12,24.82,6.4,30.62,9.28
			c0,0-23.16-67.676-28.34-86.313c-5.18-18.625-11.23-51.297,0.59-62.004c11.81-10.699,43.88,12.5,58.39,26.223
			C1405.293,1187.348,1411.473,1181.981,1426.733,1184.227z M1305.283,1241.301c-9.36-39.902-28.8-61.828-39.78-59.992
			c-10.98,1.816-15.04,28.992-5.9,59.527c9.14,30.501,28.88,64.941,39.81,61.031
			C1309.803,1297.437,1314.653,1281.187,1305.283,1241.301"/>
		<path id="path116" style="fill-rule:evenodd;clip-rule:evenodd;fill:#FFFFFF;" d="M1711.153,1157.641
			c-20.68,3.934-64.87,37.106-67.18,99.684c37.37,31.662,64.92,63.602,82.31,91.652c32.78,52.88,40.93,85.5,25.93,95.24
			c-21.19,13.76-73.05-25.35-102.89-64.75c-26.72-35.3-43.03-76.74-48.24-125.392c-16.84-10.188-33.91-19.215-51.33-29.024
			c-21.41,28.824-25,66.616-15.44,87.366c9.97,21.63,24.44,33.27,30.83,37.29c6.39,4.01,18.59,8.93,16.36-18.11
			c7.43,3.47,32.4,15.9,32.4,15.9c6.82,21.19,5.95,50.39-8.61,55.94c-14.57,5.56-50.6-8.16-81.48-47.55
			c-30.87-39.37-51.2-83.01-30.89-126.871c4.89-10.578,9.8-20.207,14.32-29.195c-50.54-31.129-104.24-70.328-136.11-143.985
			c-37.25-86.101,76.93-84.699,119.65-45.558c85.43,78.293,88.41,150.492,73.49,190.039c12.53,7.586,24.46,15.344,35.73,23.215
			c4.86-51.141,50.55-97.524,74.98-107.215c26.5-10.535,39.94,2.156,48.58,11.859
			C1732.203,1137.868,1733.093,1153.477,1711.153,1157.641L1711.153,1157.641z M1692.183,1393.027
			c21.01,22.43,29.29,17.54,31.36,15.93c2.05-1.62,13.69-15.74-27.97-70.71c-16.77-22.11-33.52-39.13-50.37-53.16
			C1651.073,1344.257,1672.823,1372.387,1692.183,1393.027L1692.183,1393.027z M1521.713,1116.844
			c-15.58-36.086-78.84-133.555-113.78-102c-34.52,31.207,19.95,112.153,110.97,160.192
			C1527.233,1154.918,1530.413,1137.043,1521.713,1116.844"/>
	</g>
</g>
</svg>
