<svg xmlns="http://www.w3.org/2000/svg" viewBox="0 0 275.19 249.74"><defs><style>.cls-1{isolation:isolate;}.cls-2{font-size:116.69px;letter-spacing:-0.06em;}.cls-10,.cls-2,.cls-9{fill:#fff;}.cls-10,.cls-2{font-family: 'Barlow Solid', sans-serif;}.cls-3{letter-spacing:-0.02em;}.cls-4{letter-spacing:0em;}.cls-5{font-size:100.6px;letter-spacing:-0.08em;}.cls-6{letter-spacing:-0.1em;}.cls-7{letter-spacing:-0.04em;}.cls-8{letter-spacing:0em;}.cls-9{mix-blend-mode:multiply;}.cls-10{font-size:61.37px;letter-spacing:-0.04em;}.cls-11{letter-spacing:-0.06em;}.cls-12{letter-spacing:0em;}</style></defs><g class="cls-1"><g id="Calque_1" data-name="Calque 1"><text class="cls-2" transform="translate(3.94 164.59)">C<tspan class="cls-3" x="55.11" y="0">O</tspan><tspan class="cls-4" x="126.28" y="0">Q</tspan><tspan class="cls-5"><tspan x="0" y="80.48">s</tspan><tspan class="cls-6" x="46.77" y="80.48">t</tspan><tspan class="cls-7" x="100.57" y="80.48">oc</tspan><tspan class="cls-8" x="209.43" y="80.48">k</tspan></tspan></text><path class="cls-9" d="M400.57,151.56v18.55a12.65,12.65,0,0,0-24.93,3.09h15.85a0,0,0,1,1,0,0,19.58,19.58,0,0,0-15.34,15.37,29.54,29.54,0,0,0-25.95-15.46v4.06a25.46,25.46,0,0,1,25.46,25.46h4.18V192.37a15.46,15.46,0,0,1,15.46-15.46h6.12a12.69,12.69,0,0,0-.85-25.35Z" transform="translate(-329.03 -151.56)"/><polygon class="cls-9" points="78.79 28.64 71.53 28.64 71.6 35.83 78.79 28.64"/><path class="cls-9" d="M407.18,191.89l.08,0-6.63-4v4.9h0v9.76a18.76,18.76,0,1,1-37.51,0h0a12.28,12.28,0,0,0-12.27-12.17v4.06a8.22,8.22,0,0,1,8.21,8.21h0a22.83,22.83,0,0,0,17.35,22v3.69h2.8V225.2a21.22,21.22,0,0,0,2.66.17,22.84,22.84,0,0,0,22.82-22.82v-2.73a2.8,2.8,0,0,0,.28.06,4.34,4.34,0,0,0,4.34-4.34A4.28,4.28,0,0,0,407.18,191.89Z" transform="translate(-329.03 -151.56)"/><path class="cls-9" d="M375.66,206.05v10a2,2,0,0,0,2,2c10.32,0,18.72-6.19,18.72-13.79v-1.6h-4.06v1.6c0,4.82-5.6,9-12.63,9.63v-7.84Z" transform="translate(-329.03 -151.56)"/><path class="cls-9" d="M367.11,202.65h4.07a20.48,20.48,0,0,0-20.46-20.45v4.07A16.4,16.4,0,0,1,367.11,202.65Z" transform="translate(-329.03 -151.56)"/><path class="cls-9" d="M392.48,182.73a1.5,1.5,0,0,1-.29-.06,2.22,2.22,0,1,0,2.19-2.47,2.27,2.27,0,0,0-.75.15,1.46,1.46,0,0,1-1.15,2.38Zm1.9-.6a.6.6,0,1,1-.6.6A.6.6,0,0,1,394.38,182.13Z" transform="translate(-329.03 -151.56)"/><text class="cls-10" transform="translate(205.77 157.61) scale(0.98 1)">e<tspan class="cls-11" x="27.96" y="0">n</tspan><tspan class="cls-12" x="58.74" y="0"> </tspan></text></g></g></svg>